<?xml version="1.0" encoding="utf-8"?>
<svg xmlns="http://www.w3.org/2000/svg" viewBox="0 0 256 256" width="256" height="256">
  <path fill="#A4CD39" fill-rule="evenodd" d="M166.40,148.48 C166.40,189.48 133.16,222.72 92.16,222.72 C51.16,222.72 17.92,189.48 17.92,148.48 C17.92,107.48 51.16,74.24 92.16,74.24 C133.16,74.24 166.40,107.48 166.40,148.48 Z M164.62,139.57 C164.62,170.73 139.36,195.99 108.20,195.99 C77.03,195.99 51.77,170.73 51.77,139.57 C51.77,108.41 77.03,83.15 108.20,83.15 C139.36,83.15 164.62,108.41 164.62,139.57 Z"/>
  <path fill="#939598" fill-rule="nonzero" d="M163.84,128.00 L217.60,128.00 L217.60,142.75 L178.59,159.33 L217.60,159.33 L217.60,174.08 L163.84,174.08 L163.84,159.33 L202.85,142.75 L163.84,142.75 Z"/>
  <path fill="#939598" fill-rule="nonzero" d="M192.00,87.04 L230.40,87.04 L230.40,96.87 L201.83,107.93 L230.40,107.93 L230.40,117.76 L192.00,117.76 L192.00,107.93 L220.57,96.87 L192.00,96.87 Z"/>
  <path fill="#939598" fill-rule="nonzero" d="M215.04,56.32 L240.64,56.32 L240.64,62.87 L221.59,70.25 L240.64,70.25 L240.64,76.80 L215.04,76.80 L215.04,70.25 L234.09,62.87 L215.04,62.87 Z"/>
</svg>