<?xml version="1.0" encoding="utf-8"?>
<svg xmlns="http://www.w3.org/2000/svg" viewBox="0 0 256 256" width="256" height="256">
  <defs><linearGradient id="night" x1="0" y1="0" x2="0" y2="1">
    <stop offset="0" stop-color="#23252E"/>
    <stop offset="1" stop-color="#121318"/>
  </linearGradient></defs>
  <rect width="256" height="256" rx="57.3" fill="url(#night)"/>
  <path fill="#F2EDE4" fill-rule="evenodd" d="M193.28,161.28 C193.28,204.40 158.32,239.36 115.20,239.36 C72.08,239.36 37.12,204.40 37.12,161.28 C37.12,118.16 72.08,83.20 115.20,83.20 C158.32,83.20 193.28,118.16 193.28,161.28 Z M177.92,161.28 C177.92,195.92 149.84,224.00 115.20,224.00 C80.56,224.00 52.48,195.92 52.48,161.28 C52.48,126.64 80.56,98.56 115.20,98.56 C149.84,98.56 177.92,126.64 177.92,161.28 Z"/>
  <path fill="#F2EDE4" fill-rule="evenodd" d="M231.68,161.28 C231.68,176.13 219.65,188.16 204.80,188.16 C189.95,188.16 177.92,176.13 177.92,161.28 C177.92,146.43 189.95,134.40 204.80,134.40 C219.65,134.40 231.68,146.43 231.68,161.28 Z M218.11,161.28 C218.11,168.63 212.15,174.59 204.80,174.59 C197.45,174.59 191.49,168.63 191.49,161.28 C191.49,153.93 197.45,147.97 204.80,147.97 C212.15,147.97 218.11,153.93 218.11,161.28 Z"/>
  <path fill="#A4CD39" fill-rule="nonzero" d="M133.44,198.91 L130.98,200.13 L128.43,201.17 L125.82,202.02 L123.15,202.69 L120.44,203.16 L117.71,203.44 L114.96,203.52 L112.21,203.40 L109.48,203.09 L106.78,202.59 L104.12,201.89 L101.52,201.00 L98.99,199.93 L96.54,198.68 L94.18,197.26 L91.94,195.67 L89.81,193.93 L87.81,192.04 L85.96,190.01 L84.25,187.85 L82.70,185.58 L81.32,183.20 L80.12,180.73 L79.09,178.18 L78.25,175.56 L77.59,172.89 L77.14,170.18 L76.87,167.45 L76.80,164.70 L76.93,161.95 L77.26,159.22 L77.78,156.52 L78.49,153.86 L79.39,151.27 L80.47,148.74 L81.73,146.30 L83.16,143.95 L84.76,141.71 L86.51,139.59 L88.41,137.60 L90.45,135.76 L92.62,134.06 L94.90,132.53 L97.28,131.16 L99.76,129.96 L102.31,128.95 L104.93,128.12 L107.61,127.48 L107.60,127.48 L106.04,128.83 L104.56,130.26 L103.14,131.77 L101.81,133.34 L100.56,134.99 L99.40,136.69 L98.32,138.45 L97.33,140.26 L96.44,142.13 L95.65,144.03 L94.95,145.97 L94.36,147.95 L93.86,149.95 L93.47,151.98 L93.19,154.02 L93.01,156.08 L92.93,158.14 L92.96,160.20 L93.10,162.26 L93.34,164.31 L93.68,166.35 L94.13,168.36 L94.68,170.35 L95.33,172.31 L96.08,174.23 L96.93,176.11 L97.88,177.94 L98.91,179.73 L100.04,181.46 L101.25,183.13 L102.55,184.73 L103.93,186.27 L105.38,187.73 L106.91,189.12 L108.50,190.43 L110.17,191.65 L111.89,192.79 L113.67,193.84 L115.49,194.79 L117.37,195.65 L119.29,196.42 L121.24,197.08 L123.22,197.65 L125.24,198.11 L127.27,198.47 L129.32,198.72 L131.37,198.87 L133.44,198.91 Z"/>
  <path fill="#F2EDE4" fill-rule="nonzero" d="M76.80,123.39 L79.72,130.20 L86.53,133.12 L79.72,136.04 L76.80,142.85 L73.88,136.04 L67.07,133.12 L73.88,130.20 Z"/>
  <path fill="#A4CD39" fill-rule="nonzero" d="M124.16,65.28 L147.20,65.28 L147.20,71.42 L130.30,78.34 L147.20,78.34 L147.20,84.48 L124.16,84.48 L124.16,78.34 L141.06,71.42 L124.16,71.42 Z"/>
  <path fill="#A4CD39" fill-rule="nonzero" d="M148.48,29.44 L181.76,29.44 L181.76,38.45 L157.49,48.59 L181.76,48.59 L181.76,57.60 L148.48,57.60 L148.48,48.59 L172.75,38.45 L148.48,38.45 Z"/>
</svg>